#Comment line ignore any data following # character 
#Hierarchical Translation and Rotation (.htr) file 
[Header]	
#Header keywords are followed by a single value 
FileType HTR		#Single word string
DataType HTRS		#Translation followed by rotation and scale data
FileVersion 1		#integer
NumSegments 84		#integer
NumFrames 2		#integer
DataFrameRate 30		#integer, data frame rate in this file
EulerRotationOrder ZYX
CalibrationUnits mm
RotationUnits Degrees
GlobalAxisofGravity Y
BoneLengthAxis Y
ScaleFactor 1.00
[SegmentNames&Hierarchy]
#CHILD	PARENT
MASTER GLOBAL
root MASTER
chest root
L_mid_tent01 root
R_mid_tent01 root
spine01 root
Bip01_Neck chest
L_humerus chest
R_humerus chest
weapon_bone chest
Bip01_Head Bip01_Neck
eye_left_bone Bip01_Head
eye_right_bone Bip01_Head
L_forearm L_humerus
L_front_hand L_forearm
L_weapon_bone L_forearm
L_front_hand01_01 L_front_hand
L_front_hand02_01 L_front_hand
L_front_hand03_01 L_front_hand
L_front_hand01_02 L_front_hand01_01
L_front_hand02_02 L_front_hand02_01
L_front_hand03_02 L_front_hand03_01
R_forearm R_humerus
R_front_hand R_forearm
R_weapon_bone R_forearm
R_front_hand01_01 R_front_hand
R_front_hand02_01 R_front_hand
R_front_hand03_01 R_front_hand
R_front_hand01_02 R_front_hand01_01
R_front_hand02_02 R_front_hand02_01
R_front_hand03_02 R_front_hand03_01
null_rope01_connect L_mid_tent01
Rope1_Seg01 null_rope01_connect
Rope1_Seg02 Rope1_Seg01
Rope1_Seg03 Rope1_Seg02
Rope1_Seg04 Rope1_Seg03
Rope1_Seg05 Rope1_Seg04
Rope1_Seg06 Rope1_Seg05
Rope1_Seg07 Rope1_Seg06
Rope1_Seg09 Rope1_Seg07
L_mid_hand01 Rope1_Seg09
L_mid_hand02 Rope1_Seg09
L_mid_hand03 Rope1_Seg09
null_rope02_connect R_mid_tent01
Rope2_Seg01 null_rope02_connect
Rope2_Seg02 Rope2_Seg01
Rope2_Seg03 Rope2_Seg02
Rope2_Seg04 Rope2_Seg03
Rope2_Seg05 Rope2_Seg04
Rope2_Seg06 Rope2_Seg05
Rope2_Seg07 Rope2_Seg06
Rope2_Seg09 Rope2_Seg07
R_mid_hand01 Rope2_Seg09
R_mid_hand02 Rope2_Seg09
R_mid_hand03 Rope2_Seg09
spine02 spine01
spine03 spine02
pelvis spine03
null_rope03_connect pelvis
null_rope04_connect pelvis
Rope3_Seg01 null_rope03_connect
Rope3_Seg02 Rope3_Seg01
Rope3_Seg03 Rope3_Seg02
Rope3_Seg04 Rope3_Seg03
Rope3_Seg05 Rope3_Seg04
Rope3_Seg06 Rope3_Seg05
Rope3_Seg07 Rope3_Seg06
Rope3_Seg08 Rope3_Seg07
Rope3_Seg09 Rope3_Seg08
R_rear_hand01 Rope3_Seg09
R_rear_hand02 Rope3_Seg09
R_rear_hand03 Rope3_Seg09
Rope4_Seg01 null_rope04_connect
Rope4_Seg02 Rope4_Seg01
Rope4_Seg03 Rope4_Seg02
Rope4_Seg04 Rope4_Seg03
Rope4_Seg05 Rope4_Seg04
Rope4_Seg06 Rope4_Seg05
Rope4_Seg07 Rope4_Seg06
Rope4_Seg08 Rope4_Seg07
Rope4_Seg09 Rope4_Seg08
L_rear_hand01 Rope4_Seg09
L_rear_hand02 Rope4_Seg09
L_rear_hand03 Rope4_Seg09
[BasePosition]
#SegmentName Tx, Ty, Tz, Rx, Ry, Rz, BoneLength
MASTER 0.000000 0.000000 0.000000 -90.000000 0.000000 0.000000 10.000000 
root 0.000000 0.000000 0.000000 0.000000 0.000000 0.000000 10.000000 
chest 0.000000 0.000000 0.000000 0.000000 0.000000 0.000000 10.000000 
L_mid_tent01 0.000000 0.000000 0.000000 0.000000 0.000000 0.000000 10.000000 
R_mid_tent01 0.000000 0.000000 0.000000 0.000000 0.000000 0.000000 10.000000 
spine01 0.000000 0.000000 0.000000 0.000000 0.000000 0.000000 10.000000 
Bip01_Neck 0.000000 0.000000 0.000000 0.000000 0.000000 0.000000 10.000000 
L_humerus 0.000000 0.000000 0.000000 0.000000 0.000000 0.000000 10.000000 
R_humerus 0.000000 0.000000 0.000000 0.000000 0.000000 0.000000 10.000000 
weapon_bone 0.000000 0.000000 0.000000 0.000000 0.000000 0.000000 10.000000 
Bip01_Head 0.000000 0.000000 0.000000 0.000000 0.000000 0.000000 10.000000 
eye_left_bone 0.000000 0.000000 0.000000 0.000000 0.000000 0.000000 10.000000 
eye_right_bone 0.000000 0.000000 0.000000 0.000000 0.000000 0.000000 10.000000 
L_forearm 0.000000 0.000000 0.000000 0.000000 0.000000 0.000000 10.000000 
L_front_hand 0.000000 0.000000 0.000000 0.000000 0.000000 0.000000 10.000000 
L_weapon_bone 0.000000 0.000000 0.000000 0.000000 0.000000 0.000000 10.000000 
L_front_hand01_01 0.000000 0.000000 0.000000 0.000000 0.000000 0.000000 10.000000 
L_front_hand02_01 0.000000 0.000000 0.000000 0.000000 0.000000 0.000000 10.000000 
L_front_hand03_01 0.000000 0.000000 0.000000 0.000000 0.000000 0.000000 10.000000 
L_front_hand01_02 0.000000 0.000000 0.000000 0.000000 0.000000 0.000000 10.000000 
L_front_hand02_02 0.000000 0.000000 0.000000 0.000000 0.000000 0.000000 10.000000 
L_front_hand03_02 0.000000 0.000000 0.000000 0.000000 0.000000 0.000000 10.000000 
R_forearm 0.000000 0.000000 0.000000 0.000000 0.000000 0.000000 10.000000 
R_front_hand 0.000000 0.000000 0.000000 0.000000 0.000000 0.000000 10.000000 
R_weapon_bone 0.000000 0.000000 0.000000 0.000000 0.000000 0.000000 10.000000 
R_front_hand01_01 0.000000 0.000000 0.000000 0.000000 0.000000 0.000000 10.000000 
R_front_hand02_01 0.000000 0.000000 0.000000 0.000000 0.000000 0.000000 10.000000 
R_front_hand03_01 0.000000 0.000000 0.000000 0.000000 0.000000 0.000000 10.000000 
R_front_hand01_02 0.000000 0.000000 0.000000 0.000000 0.000000 0.000000 10.000000 
R_front_hand02_02 0.000000 0.000000 0.000000 0.000000 0.000000 0.000000 10.000000 
R_front_hand03_02 0.000000 0.000000 0.000000 0.000000 0.000000 0.000000 10.000000 
null_rope01_connect 0.000000 0.000000 0.000000 0.000000 0.000000 0.000000 10.000000 
Rope1_Seg01 0.000000 0.000000 0.000000 0.000000 0.000000 0.000000 10.000000 
Rope1_Seg02 0.000000 0.000000 0.000000 0.000000 0.000000 0.000000 10.000000 
Rope1_Seg03 0.000000 0.000000 0.000000 0.000000 0.000000 0.000000 10.000000 
Rope1_Seg04 0.000000 0.000000 0.000000 0.000000 0.000000 0.000000 10.000000 
Rope1_Seg05 0.000000 0.000000 0.000000 0.000000 0.000000 0.000000 10.000000 
Rope1_Seg06 0.000000 0.000000 0.000000 0.000000 0.000000 0.000000 10.000000 
Rope1_Seg07 0.000000 0.000000 0.000000 0.000000 0.000000 0.000000 10.000000 
Rope1_Seg09 0.000000 0.000000 0.000000 0.000000 0.000000 0.000000 10.000000 
L_mid_hand01 0.000000 0.000000 0.000000 0.000000 0.000000 0.000000 10.000000 
L_mid_hand02 0.000000 0.000000 0.000000 0.000000 0.000000 0.000000 10.000000 
L_mid_hand03 0.000000 0.000000 0.000000 0.000000 0.000000 0.000000 10.000000 
null_rope02_connect 0.000000 0.000000 0.000000 0.000000 0.000000 0.000000 10.000000 
Rope2_Seg01 0.000000 0.000000 0.000000 0.000000 0.000000 0.000000 10.000000 
Rope2_Seg02 0.000000 0.000000 0.000000 0.000000 0.000000 0.000000 10.000000 
Rope2_Seg03 0.000000 0.000000 0.000000 0.000000 0.000000 0.000000 10.000000 
Rope2_Seg04 0.000000 0.000000 0.000000 0.000000 0.000000 0.000000 10.000000 
Rope2_Seg05 0.000000 0.000000 0.000000 0.000000 0.000000 0.000000 10.000000 
Rope2_Seg06 0.000000 0.000000 0.000000 0.000000 0.000000 0.000000 10.000000 
Rope2_Seg07 0.000000 0.000000 0.000000 0.000000 0.000000 0.000000 10.000000 
Rope2_Seg09 0.000000 0.000000 0.000000 0.000000 0.000000 0.000000 10.000000 
R_mid_hand01 0.000000 0.000000 0.000000 0.000000 0.000000 0.000000 10.000000 
R_mid_hand02 0.000000 0.000000 0.000000 0.000000 0.000000 0.000000 10.000000 
R_mid_hand03 0.000000 0.000000 0.000000 0.000000 0.000000 0.000000 10.000000 
spine02 0.000000 0.000000 0.000000 0.000000 0.000000 0.000000 10.000000 
spine03 0.000000 0.000000 0.000000 0.000000 0.000000 0.000000 10.000000 
pelvis 0.000000 0.000000 0.000000 0.000000 0.000000 0.000000 10.000000 
null_rope03_connect 0.000000 0.000000 0.000000 0.000000 0.000000 0.000000 10.000000 
null_rope04_connect 0.000000 0.000000 0.000000 0.000000 0.000000 0.000000 10.000000 
Rope3_Seg01 0.000000 0.000000 0.000000 0.000000 0.000000 0.000000 10.000000 
Rope3_Seg02 0.000000 0.000000 0.000000 0.000000 0.000000 0.000000 10.000000 
Rope3_Seg03 0.000000 0.000000 0.000000 0.000000 0.000000 0.000000 10.000000 
Rope3_Seg04 0.000000 0.000000 0.000000 0.000000 0.000000 0.000000 10.000000 
Rope3_Seg05 0.000000 0.000000 0.000000 0.000000 0.000000 0.000000 10.000000 
Rope3_Seg06 0.000000 0.000000 0.000000 0.000000 0.000000 0.000000 10.000000 
Rope3_Seg07 0.000000 0.000000 0.000000 0.000000 0.000000 0.000000 10.000000 
Rope3_Seg08 0.000000 0.000000 0.000000 0.000000 0.000000 0.000000 10.000000 
Rope3_Seg09 0.000000 0.000000 0.000000 0.000000 0.000000 0.000000 10.000000 
R_rear_hand01 0.000000 0.000000 0.000000 0.000000 0.000000 0.000000 10.000000 
R_rear_hand02 0.000000 0.000000 0.000000 0.000000 0.000000 0.000000 10.000000 
R_rear_hand03 0.000000 0.000000 0.000000 0.000000 0.000000 0.000000 10.000000 
Rope4_Seg01 0.000000 0.000000 0.000000 0.000000 0.000000 0.000000 10.000000 
Rope4_Seg02 0.000000 0.000000 0.000000 0.000000 0.000000 0.000000 10.000000 
Rope4_Seg03 0.000000 0.000000 0.000000 0.000000 0.000000 0.000000 10.000000 
Rope4_Seg04 0.000000 0.000000 0.000000 0.000000 0.000000 0.000000 10.000000 
Rope4_Seg05 0.000000 0.000000 0.000000 0.000000 0.000000 0.000000 10.000000 
Rope4_Seg06 0.000000 0.000000 0.000000 0.000000 0.000000 0.000000 10.000000 
Rope4_Seg07 0.000000 0.000000 0.000000 0.000000 0.000000 0.000000 10.000000 
Rope4_Seg08 0.000000 0.000000 0.000000 0.000000 0.000000 0.000000 10.000000 
Rope4_Seg09 0.000000 0.000000 0.000000 0.000000 0.000000 0.000000 10.000000 
L_rear_hand01 0.000000 0.000000 0.000000 0.000000 0.000000 0.000000 10.000000 
L_rear_hand02 0.000000 0.000000 0.000000 0.000000 0.000000 0.000000 10.000000 
L_rear_hand03 0.000000 0.000000 0.000000 0.000000 0.000000 0.000000 10.000000 
#Beginning of Data. Separated by tabs
#Fr	Tx	Ty	Tz	Rx	Ry	Rz	SF
[MASTER]
142 91.378540 4908.966797 0.000000 0.001660 0.001660 0.001660 4909.817383
143 124.829681 5010.910156 0.000000 0.001660 0.001660 0.001660 5012.464844
[root]
142 784.134338 181.246124 1623.645020 -79.930672 0.447783 -77.053497 1812.164429
143 701.898438 181.246338 1619.443481 -81.770073 -0.406041 -77.714317 1774.291138
[chest]
142 -84.512650 -34.090519 0.000000 -2.164627 0.132512 171.891541 91.129311
143 -84.512650 -34.090519 0.000000 -2.164627 0.132512 171.891541 91.129311
[L_mid_tent01]
142 27.300026 22.177670 -249.917923 -12.632552 2.577001 46.116730 252.380875
143 27.300035 22.177677 -249.917923 -12.632553 2.577002 46.116734 252.380875
[R_mid_tent01]
142 23.228794 24.509907 226.238495 -172.786560 -44.126621 46.163254 228.744751
143 23.228794 24.509907 226.238495 -174.292450 -42.300369 47.629292 228.744751
[spine01]
142 -0.361383 -0.195265 0.000000 0.001869 0.001420 15.534141 0.410763
143 -0.361383 -0.195265 0.000000 0.001869 0.001420 15.534141 0.410763
[Bip01_Neck]
142 165.484543 71.581718 0.000119 175.896118 1.177290 24.871183 180.302734
143 165.484543 71.581718 0.000119 175.896118 1.177290 24.871183 180.302734
[L_humerus]
142 -13.983130 -135.272980 -120.471481 175.500610 55.921959 -64.828316 181.680161
143 -13.983130 -135.272980 -120.471481 175.500610 55.921959 -64.828316 181.680161
[R_humerus]
142 -13.983309 -135.273102 125.287651 -178.898193 -46.892124 -62.295071 184.909012
143 -13.983309 -135.273102 125.287651 -178.898193 -46.892124 -62.295071 184.909012
[weapon_bone]
142 235.964890 -300.705902 0.000000 0.000000 -89.951546 -128.212341 382.234833
143 235.964890 -300.705902 0.000000 0.000000 -89.951546 -128.212341 382.234833
[Bip01_Head]
142 186.019897 185.149963 15.270385 6.022893 7.902845 -50.485199 262.901306
143 186.019897 185.149963 15.270385 5.075442 7.274019 -50.498821 262.901306
[eye_left_bone]
142 -24.626970 125.451866 -64.772606 0.000000 -90.000000 -99.840431 143.318359
143 -24.626970 125.451866 -64.772606 0.000000 -90.000000 -99.840431 143.318359
[eye_right_bone]
142 -24.626970 125.451866 64.327362 0.000000 -89.960434 80.159386 143.117676
143 -24.626970 125.451866 64.327362 0.000000 -89.960434 80.159386 143.117676
[L_forearm]
142 322.776093 0.000000 -0.000119 0.000640 0.002258 -58.348751 322.776093
143 322.776093 0.000000 -0.000119 0.000640 0.002258 -58.348751 322.776093
[L_front_hand]
142 241.149185 -0.042021 -3.300071 -178.667953 -1.835447 -27.422350 241.171753
143 241.149185 -0.042021 -3.300071 -178.667953 -1.835447 -27.422350 241.171753
[L_weapon_bone]
142 156.183838 0.000000 0.000000 0.000014 0.000007 0.000001 156.183838
143 156.183838 0.000000 0.000000 0.000014 0.000007 0.000001 156.183838
[L_front_hand01_01]
142 86.095154 20.947098 -0.655860 -0.366594 -0.477154 75.385574 88.609184
143 86.095154 20.947098 -0.655860 -0.366594 -0.477154 75.385574 88.609184
[L_front_hand02_01]
142 86.935165 -11.437475 24.513514 154.403519 -59.888931 -61.371990 91.046425
143 86.935165 -11.437475 24.513514 154.403519 -59.888931 -61.371990 91.046425
[L_front_hand03_01]
142 86.637497 -14.123976 -20.424902 -153.913849 58.118122 -62.702866 90.126129
143 86.637497 -14.123976 -20.424902 -153.913849 58.118122 -62.702866 90.126129
[L_front_hand01_02]
142 71.020905 -0.000179 0.000030 0.000334 -0.002323 -106.379684 71.020905
143 71.020905 -0.000179 0.000030 0.000334 -0.002323 -106.379684 71.020905
[L_front_hand02_02]
142 71.020927 -0.000119 0.000060 0.000334 -0.002323 -106.379684 71.020927
143 71.020927 -0.000119 0.000060 0.000334 -0.002323 -106.379684 71.020927
[L_front_hand03_02]
142 71.020905 -0.000060 0.000060 0.000334 -0.002323 -106.379684 71.020905
143 71.020905 -0.000060 0.000060 0.000334 -0.002323 -106.379684 71.020905
[R_forearm]
142 322.776428 -0.000060 0.000030 0.178801 -0.113338 -58.530384 322.776428
143 322.776428 -0.000060 0.000030 0.178801 -0.113338 -58.530384 322.776428
[R_front_hand]
142 238.847015 -0.006795 2.210259 -1.531694 0.790216 -51.443054 238.857239
143 238.847015 -0.006795 2.210259 -1.531694 0.790216 -51.443054 238.857239
[R_weapon_bone]
142 155.664093 0.002503 -0.000030 0.003487 0.001180 -90.988930 155.664078
143 155.664093 0.002503 -0.000030 0.003487 0.001180 -90.988930 155.664078
[R_front_hand01_01]
142 87.624611 14.231146 22.918642 -154.633499 -59.950619 61.746044 91.683487
143 87.624611 14.231146 22.918642 -154.633499 -59.950619 61.746044 91.683487
[R_front_hand02_01]
142 89.356956 14.367283 -19.491137 154.602661 58.302849 63.744389 92.579636
143 89.356956 14.367283 -19.491137 154.602661 58.302849 63.744389 92.579636
[R_front_hand03_01]
142 87.286232 -22.307278 -0.143439 0.162155 -0.423168 -75.767906 90.091743
143 87.286232 -22.307278 -0.143439 0.162155 -0.423168 -75.767921 90.091743
[R_front_hand01_02]
142 71.020905 0.000060 0.000119 0.002323 -0.000334 106.381714 71.020905
143 71.020905 0.000060 0.000119 0.002323 -0.000334 106.381714 71.020905
[R_front_hand02_02]
142 71.020844 -0.000030 -0.000119 0.002323 -0.000334 106.381714 71.020836
143 71.020844 -0.000030 -0.000119 0.002323 -0.000334 106.381714 71.020836
[R_front_hand03_02]
142 71.020905 0.000000 0.000030 0.002323 -0.000334 106.381714 71.020905
143 71.020905 0.000000 0.000030 0.002323 -0.000334 106.381714 71.020905
[null_rope01_connect]
142 328.732483 0.000000 -0.000238 91.481796 -69.736755 -47.626499 328.732483
143 328.732483 0.000000 -0.000238 97.261292 -70.266968 -52.466393 328.732483
[Rope1_Seg01]
142 7.754589 1.408997 1.346304 48.120327 0.636465 -120.014679 7.995715
143 7.803950 1.398011 1.073481 31.378599 3.339275 -113.164948 8.000527
[Rope1_Seg02]
142 139.999863 -0.000179 0.000000 -6.820224 5.696367 -3.121224 139.999863
143 139.999863 -0.000179 0.000000 -9.447165 6.021159 -2.578653 139.999863
[Rope1_Seg03]
142 139.999924 0.000060 -0.000060 -30.776279 10.132967 -4.132154 139.999924
143 139.999924 0.000060 -0.000060 -41.488907 10.975269 -2.732765 139.999924
[Rope1_Seg04]
142 139.999924 -0.000060 -0.000119 -94.002823 19.920044 3.387352 139.999924
143 139.999924 -0.000060 -0.000119 -75.495056 19.025225 10.787645 139.999924
[Rope1_Seg05]
142 139.999832 0.000119 -0.000060 -15.403211 -10.212593 28.668179 139.999832
143 139.999832 0.000119 -0.000060 -13.498126 -11.586517 29.607271 139.999832
[Rope1_Seg06]
142 139.999954 0.000119 -0.000060 -5.329141 -7.271836 18.529390 139.999954
143 139.999954 0.000119 -0.000060 -4.606149 -6.687832 18.243353 139.999954
[Rope1_Seg07]
142 139.999985 0.000060 0.000000 -3.573692 -1.655791 18.898127 139.999985
143 139.999985 0.000060 0.000000 -2.677931 -1.226576 20.818874 139.999985
[Rope1_Seg09]
142 121.602913 0.000119 -0.000089 -89.793175 -1.359789 0.847147 121.602913
143 121.602913 0.000119 -0.000089 -89.793175 -1.359789 0.847147 121.602913
[L_mid_hand01]
142 103.859421 1.038730 8.195221 116.294914 -23.111713 -31.758034 104.187431
143 103.859421 1.038730 8.195221 116.294914 -23.111713 -31.758034 104.187431
[L_mid_hand02]
142 105.572853 -4.139662 -10.864139 -144.219833 17.447468 -35.360519 106.211075
143 105.572853 -4.139662 -10.864139 -144.219833 17.447468 -35.360519 106.211075
[L_mid_hand03]
142 104.641464 17.579376 -3.913581 -17.830778 17.153103 31.982925 106.179977
143 104.641464 17.579376 -3.913581 -17.830780 17.153103 31.982925 106.179977
[null_rope02_connect]
142 328.732849 0.000179 -0.000119 -144.237961 29.855301 -1.189580 328.732849
143 328.732849 0.000179 -0.000119 -142.158218 33.484859 0.489359 328.732849
[Rope2_Seg01]
142 0.000005 0.000583 0.000143 -69.759766 25.126291 -7.760640 0.000600
143 0.000004 0.000586 0.000144 -76.825027 37.325142 4.369668 0.000603
[Rope2_Seg02]
142 139.999741 -0.000060 -0.000119 -6.048416 6.154686 0.821456 139.999756
143 139.999741 -0.000060 -0.000119 -4.306262 4.445544 2.429847 139.999756
[Rope2_Seg03]
142 140.000107 0.000030 0.000000 -16.569040 10.024496 2.461087 140.000107
143 140.000107 0.000030 0.000000 -8.365019 6.870070 4.492764 140.000107
[Rope2_Seg04]
142 139.999802 0.000000 -0.000060 -58.578426 17.256464 9.647438 139.999802
143 139.999802 0.000000 -0.000060 -20.022152 11.782666 10.342348 139.999802
[Rope2_Seg05]
142 139.999985 -0.000060 0.000119 -39.641357 0.103109 27.929085 139.999985
143 139.999985 -0.000060 0.000119 -34.607834 13.624766 25.642023 139.999985
[Rope2_Seg06]
142 139.999893 -0.000030 -0.000119 -6.577735 -17.903177 14.831770 139.999893
143 139.999893 -0.000030 -0.000119 -15.622653 -7.325987 24.577553 139.999893
[Rope2_Seg07]
142 139.999893 0.000060 -0.000060 -2.183177 -13.690553 9.355207 139.999893
143 139.999893 0.000060 -0.000060 -4.761687 -10.597866 14.822614 139.999893
[Rope2_Seg09]
142 121.338966 0.000089 -0.000060 33.793236 -1.359788 -0.847141 121.338966
143 121.338966 0.000089 -0.000060 33.793236 -1.359788 -0.847141 121.338966
[R_mid_hand01]
142 104.680779 11.144459 -10.335981 -41.523792 25.424656 28.595957 105.778534
143 104.680779 11.144459 -10.335981 -41.523792 25.424656 28.595957 105.778534
[R_mid_hand02]
142 104.070427 2.443552 8.231699 72.847389 -32.746803 10.013901 104.424065
143 104.070427 2.443552 8.231699 72.847389 -32.746803 10.013901 104.424065
[R_mid_hand03]
142 106.028137 -11.221827 -5.996406 -167.901306 10.259192 -37.009720 106.788818
143 106.028137 -11.221827 -5.996406 -167.901306 10.259192 -37.009720 106.788818
[spine02]
142 129.756927 0.001550 0.000119 -0.245322 -4.052060 -4.355547 129.756927
143 129.756927 0.001550 0.000119 -0.245322 -4.052060 -4.355547 129.756927
[spine03]
142 78.614456 0.087280 -4.898832 0.369659 4.260734 -4.885720 78.766991
143 78.614464 0.087280 -4.898833 0.369659 4.260734 -4.885720 78.767006
[pelvis]
142 169.435242 0.051022 0.000000 -0.010007 -0.191417 -1.897554 169.435257
143 169.435242 0.051022 0.000000 -0.010007 -0.191417 -1.897554 169.435257
[null_rope03_connect]
142 -1.257226 -2.466202 137.391083 50.029655 -73.487457 33.928890 137.418976
143 -1.257226 -2.466202 137.391083 54.347778 -74.991814 30.723766 137.418976
[null_rope04_connect]
142 -1.259640 -2.480268 -137.844437 50.029655 -73.487457 33.928890 137.872513
143 -1.259640 -2.480268 -137.844437 54.347778 -74.991814 30.723766 137.872513
[Rope3_Seg01]
142 -0.000001 0.000574 -0.000287 -146.111237 19.274149 -131.624283 0.000641
143 -0.000001 0.000578 -0.000289 -163.012207 23.034748 -147.539536 0.000646
[Rope3_Seg02]
142 139.999924 -0.000119 0.000060 1.032308 -1.832262 -4.096581 139.999924
143 139.999924 -0.000119 0.000060 4.071168 -0.222698 -3.441307 139.999924
[Rope3_Seg03]
142 139.999924 -0.000119 0.000119 1.350197 -3.217534 -6.888279 139.999924
143 139.999924 -0.000119 0.000119 5.187749 -0.865958 -6.348249 139.999924
[Rope3_Seg04]
142 139.999924 0.000119 0.000000 2.110987 -6.863843 -14.123751 139.999924
143 139.999924 0.000119 0.000000 7.454370 -3.965175 -17.595140 139.999924
[Rope3_Seg05]
142 139.999924 -0.000238 0.000060 6.918563 -17.538862 -38.610100 139.999924
143 139.999924 -0.000238 0.000060 14.615166 -17.306517 -65.975258 139.999924
[Rope3_Seg06]
142 139.999893 -0.000119 -0.000060 1.933647 -13.256354 -25.596624 139.999893
143 139.999893 -0.000119 -0.000060 -1.438726 -11.148654 -26.714998 139.999893
[Rope3_Seg07]
142 139.999771 0.000060 -0.000119 1.317235 -5.837176 -8.164046 139.999771
143 139.999771 0.000060 -0.000119 -3.025489 -8.012796 -15.857541 139.999771
[Rope3_Seg08]
142 139.999985 -0.000060 0.000000 1.241165 -6.199895 -8.925359 139.999985
143 139.999985 -0.000060 0.000000 -68.252831 -7.737102 -19.545542 139.999985
[Rope3_Seg09]
142 90.185997 -0.000179 -0.000060 89.793228 -1.359877 -0.847183 90.185997
143 90.185997 -0.000179 -0.000060 89.793228 -1.359877 -0.847183 90.185997
[R_rear_hand01]
142 103.366196 -6.073594 -10.757982 -158.627975 33.644127 -23.327253 104.101845
143 103.366196 -6.073594 -10.757982 -158.627975 33.644127 -23.327253 104.101845
[R_rear_hand02]
142 100.509819 12.039542 -7.992327 -36.327797 26.496241 23.332451 101.543350
143 100.509819 12.039542 -7.992327 -36.327797 26.496241 23.332451 101.543350
[R_rear_hand03]
142 101.539970 5.215704 5.435467 73.054977 -27.152536 27.950705 101.819031
143 101.539970 5.215704 5.435467 73.054977 -27.152536 27.950705 101.819031
[Rope4_Seg01]
142 -0.000020 0.000002 0.000009 37.561165 18.574587 -129.354340 0.000022
143 -0.000020 0.000002 0.000008 44.040913 -0.391716 -134.824677 0.000022
[Rope4_Seg02]
142 139.999985 0.000060 0.000119 2.925924 -13.540930 -0.589716 139.999985
143 139.999985 0.000060 0.000119 3.678997 -13.415142 -2.548576 139.999985
[Rope4_Seg03]
142 139.999924 0.000000 -0.000238 12.563777 -24.860838 0.268581 139.999924
143 139.999924 0.000000 -0.000238 13.849152 -21.087135 -2.674010 139.999924
[Rope4_Seg04]
142 139.999985 0.000000 0.000119 42.360146 -27.282070 8.807033 139.999985
143 139.999985 0.000000 0.000119 53.685474 -21.867840 4.821001 139.999985
[Rope4_Seg05]
142 139.999802 -0.000060 -0.000119 33.226151 -9.594047 14.199652 139.999802
143 139.999802 -0.000060 -0.000119 45.418339 -8.699163 13.775428 139.999802
[Rope4_Seg06]
142 139.999924 0.000000 0.000060 31.021364 -4.019186 26.964773 139.999924
143 139.999924 0.000000 0.000060 30.839756 0.738030 24.453207 139.999924
[Rope4_Seg07]
142 139.999802 0.000000 0.000000 15.141623 11.944760 29.958221 139.999802
143 139.999802 0.000000 0.000000 11.817644 13.115668 21.527636 139.999802
[Rope4_Seg08]
142 139.999924 0.000000 0.000119 0.711168 8.043766 11.050635 139.999924
143 139.999924 0.000000 0.000119 0.763131 8.278907 8.718347 139.999924
[Rope4_Seg09]
142 90.185791 0.000060 0.000060 -135.617828 2.228885 0.850567 90.185791
143 90.185791 0.000060 0.000060 -135.617828 2.228885 0.850567 90.185791
[L_rear_hand01]
142 101.696655 -8.392275 -7.654577 -33.685818 -15.212530 149.017090 102.329041
143 101.696655 -8.392275 -7.654577 -33.685818 -15.212530 149.017090 102.329041
[L_rear_hand02]
142 102.726799 -1.568258 5.773216 83.407906 30.330435 172.796509 102.900848
143 102.726799 -1.568258 5.773216 83.407906 30.330435 172.796509 102.900848
[L_rear_hand03]
142 104.552910 9.721220 -10.420293 -160.801239 -15.606593 -150.211823 105.519653
143 104.552910 9.721220 -10.420293 -160.801239 -15.606593 -150.211823 105.519653
